<svg xmlns="http://www.w3.org/2000/svg" width="23" height="27" viewBox="0 0 23 27" fill="none">
<g clip-path="url(#clip0_810_1736)">
<path d="M22.9705 18.8709C22.9794 18.6534 22.9418 18.4365 22.8601 18.2336C22.7783 18.0306 22.6542 17.846 22.4954 17.6911C21.9722 17.2046 21.0648 16.9954 19.4624 17.0246C17.8129 17.0937 16.1737 17.3119 14.5667 17.6765C13.5565 17.8885 12.5605 18.159 11.5843 18.4865C10.826 18.7298 10.3028 18.9025 9.69371 18.9025H9.67097C9.47578 18.9126 9.28105 18.8757 9.10449 18.795C8.92792 18.7142 8.77512 18.5923 8.65998 18.4403C8.55 18.2723 8.48443 18.0809 8.46901 17.8829C8.45359 17.6849 8.48879 17.4863 8.57152 17.3044C8.97521 16.2442 9.12973 15.1111 9.02393 13.9865C8.85712 12.4176 8.0458 11.5152 6.7947 11.5054C6.59923 11.4939 6.40343 11.5222 6.22008 11.5884C6.03673 11.6546 5.86995 11.7573 5.73064 11.8898C5.27316 12.3471 5.26558 13.0427 5.29844 13.7749C5.32624 14.4414 4.57305 15.12 4.12316 15.5263C3.11217 16.4457 2.33371 17.7884 2.16437 18.9463C2.1391 19.119 2.1214 19.2771 2.10371 19.4327C2.10019 19.6904 2.04438 19.9449 1.93943 20.1819C1.43503 20.6196 0.904176 21.0281 0.349646 21.4054C0.29599 21.4436 0.250721 21.4917 0.216451 21.5468C0.182181 21.6019 0.159589 21.663 0.149976 21.7265C0.149976 21.7873 -0.0547493 23.22 1.45162 25.0614C2.53086 26.3822 4.07261 26.9782 5.06591 26.9782H5.1013C5.25012 26.9915 5.4001 26.9706 5.53894 26.9174C5.67778 26.8641 5.80151 26.7799 5.89998 26.6717C6.15272 26.3336 7.13086 25.3119 7.51756 25.1125C8.49569 24.6041 9.48141 24.1395 10.3685 23.7625C12.4664 23.7236 17.8221 23.6895 19.0353 23.979C19.2386 24.028 19.4474 24.0525 19.657 24.0519C20.5694 24.0519 21.5198 23.6117 21.8129 22.7165C21.9134 22.4609 21.9567 22.1878 21.9402 21.9149C21.9236 21.6421 21.8476 21.3757 21.7169 21.133C21.6206 20.9686 21.4977 20.82 21.3529 20.6927C22.6546 20.2744 22.9655 19.5009 22.9705 18.8709ZM20.85 22.4246C20.6731 22.9622 19.8794 23.1787 19.2804 23.0352C18.2846 22.7919 15.2036 22.7579 12.9112 22.7652L13.1488 22.68C15.3093 21.8901 17.5512 21.3242 19.8365 20.9919C20.342 21.133 20.6806 21.3422 20.8298 21.6025C20.8913 21.7309 20.9248 21.8701 20.9282 22.0115C20.9317 22.1529 20.9051 22.2935 20.85 22.4246ZM20.304 19.946C16.2424 20.5444 14.0865 21.3179 12.7974 21.78L12.4158 21.8919C10.5696 22.5585 8.77262 23.3452 7.03734 24.2465C6.44844 24.5506 5.47031 25.6257 5.15943 25.9954C4.74745 26.0514 3.29162 25.7327 2.24525 24.4509C1.30756 23.3052 1.16349 22.4076 1.14833 22.0403C1.62349 21.6973 2.52327 21.0333 2.74316 20.7609C2.99591 20.4325 3.05404 20.0311 3.1147 19.5252C3.12987 19.389 3.14756 19.2406 3.17031 19.0776C3.30932 18.1387 3.97151 16.9954 4.82075 16.2317C5.3591 15.7452 6.3625 14.8403 6.31195 13.7287C6.29679 13.3881 6.26899 12.7557 6.4636 12.5611C6.48635 12.5392 6.55206 12.4736 6.78459 12.4736C7.48976 12.4736 7.90426 13.0184 8.01547 14.0814C8.11168 15.0575 7.98132 16.0421 7.63382 16.9638C7.49234 17.2925 7.43678 17.6495 7.47204 18.0036C7.50729 18.3577 7.63227 18.6981 7.83602 18.9949C8.04305 19.2759 8.31869 19.5036 8.63866 19.658C8.95863 19.8124 9.31313 19.8888 9.67097 19.8803C10.4595 19.8803 11.0687 19.6881 11.9128 19.4157C12.8606 19.096 13.8279 18.8328 14.8093 18.6276C16.3497 18.2763 17.9213 18.0662 19.5028 18C20.7312 17.9781 21.4995 18.1071 21.7927 18.3868C21.8561 18.451 21.9039 18.528 21.9327 18.6121C21.9615 18.6962 21.9707 18.7854 21.9595 18.8733C21.957 19.0679 21.952 19.7027 20.304 19.946Z" fill="#000000"/>
<path d="M4.98401 8.99967C5.02192 8.99967 8.88137 9.55426 10.4737 11.0867C12.066 12.6191 12.6372 16.3286 12.6372 16.3651C12.6372 16.4941 12.6905 16.6178 12.7853 16.7091C12.8801 16.8003 13.0086 16.8516 13.1427 16.8516C13.2768 16.8516 13.4053 16.8003 13.5001 16.7091C13.5949 16.6178 13.6482 16.4941 13.6482 16.3651C13.6482 16.3286 14.2245 12.6143 15.8168 11.0818C17.4091 9.5494 21.2635 8.99967 21.3014 8.99967C21.4354 8.99967 21.564 8.94841 21.6588 8.85718C21.7536 8.76595 21.8069 8.64221 21.8069 8.51318C21.8069 8.38416 21.7536 8.26042 21.6588 8.16918C21.564 8.07795 21.4354 8.0267 21.3014 8.0267C21.2635 8.0267 17.404 7.4721 15.8117 5.93967C14.2194 4.40724 13.6482 0.697778 13.6482 0.661291C13.6482 0.532267 13.5949 0.408527 13.5001 0.317293C13.4053 0.226059 13.2768 0.174805 13.1427 0.174805C13.0086 0.174805 12.8801 0.226059 12.7853 0.317293C12.6905 0.408527 12.6372 0.532267 12.6372 0.661291C12.6372 0.697778 12.0609 4.4121 10.4686 5.94453C8.87632 7.47697 5.02192 8.0267 4.98401 8.0267C4.84994 8.0267 4.72137 8.07795 4.62657 8.16918C4.53177 8.26042 4.47852 8.38416 4.47852 8.51318C4.47852 8.64221 4.53177 8.76595 4.62657 8.85718C4.72137 8.94841 4.84994 8.99967 4.98401 8.99967ZM11.189 6.63778C12.1443 5.71832 12.7661 4.20535 13.1427 2.96237C13.5193 4.21264 14.1537 5.71832 15.0964 6.63778C16.0392 7.55724 17.6239 8.15561 18.9154 8.51805C17.6138 8.88048 16.0518 9.49102 15.0964 10.3983C14.141 11.3056 13.5193 12.8186 13.1427 14.0689C12.7661 12.8186 12.1317 11.3129 11.189 10.3935C10.2462 9.47399 8.66148 8.87561 7.36994 8.51318C8.67159 8.15075 10.2336 7.55237 11.189 6.63291V6.63778Z" fill="#000000"/>
<path d="M17.6928 4.62156C17.8267 4.62102 17.9548 4.56941 18.0492 4.47805L19.0602 3.50507C19.143 3.41201 19.1863 3.2923 19.1814 3.16986C19.1764 3.04742 19.1237 2.93128 19.0337 2.84464C18.9437 2.758 18.823 2.70724 18.6958 2.70251C18.5685 2.69778 18.4441 2.73943 18.3474 2.81913L17.3365 3.7921C17.2662 3.86013 17.2184 3.94663 17.1991 4.04073C17.1797 4.13483 17.1897 4.23233 17.2278 4.32097C17.2659 4.40961 17.3304 4.48544 17.4131 4.53892C17.4958 4.59241 17.5932 4.62116 17.6928 4.62156Z" fill="#000000"/>
<path d="M17.3364 12.5487C17.2423 12.6398 17.1895 12.7631 17.1895 12.8917C17.1895 13.0202 17.2423 13.1435 17.3364 13.2346L18.3474 14.2076C18.4441 14.2873 18.5685 14.329 18.6957 14.3242C18.823 14.3195 18.9437 14.2687 19.0337 14.1821C19.1237 14.0955 19.1764 13.9793 19.1814 13.8569C19.1863 13.7344 19.143 13.6147 19.0602 13.5217L18.0492 12.5487C17.9545 12.4581 17.8264 12.4072 17.6928 12.4072C17.5593 12.4072 17.4312 12.4581 17.3364 12.5487Z" fill="#000000"/>
<path d="M8.23801 4.47805C8.33471 4.55775 8.4591 4.59939 8.58632 4.59466C8.71354 4.58993 8.83422 4.53918 8.92425 4.45254C9.01427 4.3659 9.06701 4.24975 9.07193 4.12732C9.07684 4.00488 9.03357 3.88517 8.95075 3.7921L7.93977 2.81913C7.84306 2.73943 7.71867 2.69778 7.59145 2.70251C7.46423 2.70724 7.34355 2.758 7.25353 2.84464C7.1635 2.93128 7.11076 3.04742 7.10585 3.16986C7.10093 3.2923 7.14421 3.41201 7.22702 3.50507L8.23801 4.47805Z" fill="#000000"/>
</g>
<defs fill="#000000">
<clipPath id="clip0_810_1736" fill="#000000">
<rect width="23" height="27" fill="#ffffff"/>
</clipPath>
</defs>
</svg>