<svg width="23" height="27" viewBox="0 0 23 27" fill="none" xmlns="http://www.w3.org/2000/svg">
<g clip-path="url(#clip0_31_981)">
<path d="M22.9697 18.8709C22.9785 18.6534 22.9409 18.4365 22.8592 18.2336C22.7775 18.0306 22.6533 17.846 22.4945 17.6911C21.9713 17.2046 21.064 16.9954 19.4615 17.0246C17.812 17.0937 16.1729 17.3119 14.5658 17.6765C13.5556 17.8885 12.5597 18.159 11.5834 18.4865C10.8252 18.7298 10.302 18.9025 9.69286 18.9025H9.67011C9.47493 18.9126 9.2802 18.8757 9.10363 18.795C8.92707 18.7142 8.77427 18.5923 8.65912 18.4403C8.54914 18.2723 8.48358 18.0809 8.46816 17.8829C8.45274 17.6849 8.48793 17.4863 8.57066 17.3044C8.97436 16.2442 9.12887 15.1111 9.02308 13.9865C8.85627 12.4176 8.04495 11.5152 6.79385 11.5054C6.59838 11.4939 6.40257 11.5222 6.21922 11.5884C6.03587 11.6546 5.86909 11.7573 5.72978 11.8898C5.27231 12.3471 5.26473 13.0427 5.29758 13.7749C5.32539 14.4414 4.5722 15.12 4.12231 15.5263C3.11132 16.4457 2.33286 17.7884 2.16352 18.9463C2.13824 19.119 2.12055 19.2771 2.10286 19.4327C2.09933 19.6904 2.04353 19.9449 1.93857 20.1819C1.43418 20.6196 0.903321 21.0281 0.348792 21.4054C0.295136 21.4436 0.249867 21.4917 0.215597 21.5468C0.181327 21.6019 0.158734 21.663 0.149122 21.7265C0.149122 21.7873 -0.0556038 23.22 1.45077 25.0614C2.53 26.3822 4.07176 26.9782 5.06506 26.9782H5.10044C5.24926 26.9915 5.39925 26.9706 5.53809 26.9174C5.67692 26.8641 5.80065 26.7799 5.89912 26.6717C6.15187 26.3336 7.13 25.3119 7.51671 25.1125C8.49484 24.6041 9.48055 24.1395 10.3677 23.7625C12.4655 23.7236 17.8212 23.6895 19.0344 23.979C19.2377 24.028 19.4466 24.0525 19.6562 24.0519C20.5686 24.0519 21.5189 23.6117 21.8121 22.7165C21.9125 22.4609 21.9559 22.1878 21.9393 21.9149C21.9228 21.6421 21.8467 21.3757 21.716 21.133C21.6197 20.9686 21.4969 20.82 21.3521 20.6927C22.6537 20.2744 22.9646 19.5009 22.9697 18.8709ZM20.8491 22.4246C20.6722 22.9622 19.8786 23.1787 19.2796 23.0352C18.2837 22.7919 15.2027 22.7579 12.9103 22.7652L13.1479 22.68C15.3084 21.8901 17.5503 21.3242 19.8356 20.9919C20.3411 21.133 20.6798 21.3422 20.8289 21.6025C20.8904 21.7309 20.9239 21.8701 20.9274 22.0115C20.9309 22.1529 20.9042 22.2935 20.8491 22.4246ZM20.3032 19.946C16.2415 20.5444 14.0856 21.3179 12.7966 21.78L12.4149 21.8919C10.5687 22.5585 8.77176 23.3452 7.03648 24.2465C6.44758 24.5506 5.46945 25.6257 5.15857 25.9954C4.74659 26.0514 3.29077 25.7327 2.2444 24.4509C1.3067 23.3052 1.16264 22.4076 1.14747 22.0403C1.62264 21.6973 2.52242 21.0333 2.74231 20.7609C2.99506 20.4325 3.05319 20.0311 3.11385 19.5252C3.12901 19.389 3.1467 19.2406 3.16945 19.0776C3.30846 18.1387 3.97066 16.9954 4.81989 16.2317C5.35824 15.7452 6.36165 14.8403 6.3111 13.7287C6.29594 13.3881 6.26813 12.7557 6.46275 12.5611C6.4855 12.5392 6.55121 12.4736 6.78374 12.4736C7.4889 12.4736 7.90341 13.0184 8.01462 14.0814C8.11083 15.0575 7.98047 16.0421 7.63297 16.9638C7.49148 17.2925 7.43593 17.6495 7.47118 18.0036C7.50643 18.3577 7.63141 18.6981 7.83517 18.9949C8.0422 19.2759 8.31783 19.5036 8.6378 19.658C8.95778 19.8124 9.31228 19.8888 9.67011 19.8803C10.4587 19.8803 11.0678 19.6881 11.912 19.4157C12.8597 19.096 13.8271 18.8328 14.8085 18.6276C16.3489 18.2763 17.9204 18.0662 19.502 18C20.7303 17.9781 21.4987 18.1071 21.7919 18.3868C21.8552 18.451 21.903 18.528 21.9319 18.6121C21.9607 18.6962 21.9699 18.7854 21.9587 18.8733C21.9562 19.0679 21.9511 19.7027 20.3032 19.946Z" fill="#7F7F7F"/>
<path d="M4.98418 9.00004C5.02209 9.00004 8.88154 9.55463 10.4738 11.0871C12.0662 12.6195 12.6374 16.329 12.6374 16.3654C12.6374 16.4945 12.6906 16.6182 12.7854 16.7094C12.8802 16.8007 13.0088 16.8519 13.1429 16.8519C13.2769 16.8519 13.4055 16.8007 13.5003 16.7094C13.5951 16.6182 13.6484 16.4945 13.6484 16.3654C13.6484 16.329 14.2246 12.6146 15.8169 11.0822C17.4092 9.54976 21.2636 9.00004 21.3015 9.00004C21.4356 9.00004 21.5642 8.94878 21.659 8.85755C21.7538 8.76631 21.807 8.64257 21.807 8.51355C21.807 8.38452 21.7538 8.26078 21.659 8.16955C21.5642 8.07832 21.4356 8.02706 21.3015 8.02706C21.2636 8.02706 17.4042 7.47247 15.8119 5.94004C14.2196 4.4076 13.6484 0.698144 13.6484 0.661657C13.6484 0.532633 13.5951 0.408893 13.5003 0.317659C13.4055 0.226426 13.2769 0.175171 13.1429 0.175171C13.0088 0.175171 12.8802 0.226426 12.7854 0.317659C12.6906 0.408893 12.6374 0.532633 12.6374 0.661657C12.6374 0.698144 12.0611 4.41247 10.4688 5.9449C8.87648 7.47733 5.02209 8.02706 4.98418 8.02706C4.85011 8.02706 4.72154 8.07832 4.62674 8.16955C4.53194 8.26078 4.47868 8.38452 4.47868 8.51355C4.47868 8.64257 4.53194 8.76631 4.62674 8.85755C4.72154 8.94878 4.85011 9.00004 4.98418 9.00004ZM11.1891 6.63814C12.1445 5.71868 12.7663 4.20571 13.1429 2.96274C13.5195 4.21301 14.1538 5.71868 15.0966 6.63814C16.0393 7.5576 17.6241 8.15598 18.9156 8.51841C17.614 8.88085 16.052 9.49139 15.0966 10.3987C14.1412 11.306 13.5195 12.819 13.1429 14.0692C12.7663 12.819 12.1319 11.3133 11.1891 10.3938C10.2464 9.47436 8.66165 8.87598 7.37011 8.51355C8.67176 8.15112 10.2337 7.55274 11.1891 6.63328V6.63814Z" fill="#7F7F7F"/>
<path d="M17.6923 4.62168C17.8262 4.62114 17.9543 4.56953 18.0487 4.47817L19.0597 3.5052C19.1425 3.41213 19.1858 3.29242 19.1808 3.16998C19.1759 3.04754 19.1232 2.9314 19.0332 2.84476C18.9431 2.75812 18.8225 2.70736 18.6952 2.70263C18.568 2.6979 18.4436 2.73955 18.3469 2.81925L17.3359 3.79222C17.2657 3.86025 17.2179 3.94675 17.1985 4.04085C17.1792 4.13495 17.1892 4.23245 17.2273 4.32109C17.2654 4.40973 17.3298 4.48556 17.4126 4.53905C17.4953 4.59253 17.5926 4.62128 17.6923 4.62168Z" fill="#7F7F7F"/>
<path d="M17.3359 12.5489C17.2418 12.6401 17.1889 12.7634 17.1889 12.8919C17.1889 13.0204 17.2418 13.1437 17.3359 13.2349L18.3469 14.2079C18.4436 14.2876 18.568 14.3292 18.6952 14.3245C18.8225 14.3197 18.9431 14.269 19.0332 14.1823C19.1232 14.0957 19.1759 13.9796 19.1808 13.8571C19.1858 13.7347 19.1425 13.615 19.0597 13.5219L18.0487 12.5489C17.954 12.4583 17.8258 12.4075 17.6923 12.4075C17.5588 12.4075 17.4306 12.4583 17.3359 12.5489Z" fill="#7F7F7F"/>
<path d="M8.23703 4.47817C8.33373 4.55787 8.45812 4.59951 8.58534 4.59479C8.71256 4.59006 8.83325 4.5393 8.92327 4.45266C9.0133 4.36602 9.06604 4.24988 9.07095 4.12744C9.07587 4.005 9.03259 3.88529 8.94978 3.79222L7.93879 2.81925C7.84209 2.73955 7.7177 2.6979 7.59048 2.70263C7.46326 2.70736 7.34257 2.75812 7.25255 2.84476C7.16252 2.9314 7.10978 3.04754 7.10487 3.16998C7.09996 3.29242 7.14323 3.41213 7.22604 3.5052L8.23703 4.47817Z" fill="#7F7F7F"/>
</g>
<defs>
<clipPath id="clip0_31_981">
<rect width="23" height="27" fill="white"/>
</clipPath>
</defs>
</svg>
