<svg width="24" height="25" viewBox="0 0 24 25" fill="none" xmlns="http://www.w3.org/2000/svg">
<path d="M19.513 13.0834L12.013 20.5114L4.513 13.0834C4.0183 12.602 3.62864 12.0234 3.36854 11.384C3.10845 10.7447 2.98356 10.0584 3.00173 9.36834C3.01991 8.67832 3.18076 7.99954 3.47415 7.37474C3.76755 6.74994 4.18713 6.19266 4.70648 5.73799C5.22583 5.28331 5.8337 4.9411 6.49181 4.73289C7.14991 4.52468 7.844 4.45499 8.53036 4.52821C9.21673 4.60143 9.8805 4.81596 10.4799 5.15831C11.0792 5.50066 11.6012 5.96341 12.013 6.51741C12.4265 5.96743 12.9491 5.50873 13.5481 5.17001C14.1471 4.8313 14.8095 4.61986 15.4939 4.54893C16.1784 4.478 16.8701 4.54911 17.5258 4.7578C18.1815 4.96649 18.787 5.30828 19.3045 5.76177C19.8221 6.21526 20.2404 6.77069 20.5334 7.3933C20.8264 8.01591 20.9877 8.69229 21.0073 9.38012C21.0269 10.0679 20.9043 10.7524 20.6471 11.3907C20.39 12.0289 20.0039 12.6072 19.513 13.0894" stroke="#848386" stroke-width="1.5" stroke-linecap="round" stroke-linejoin="round"/>
</svg>
