<svg width="18" height="18" viewBox="0 0 18 18" fill="none" xmlns="http://www.w3.org/2000/svg">
<path d="M8.99998 16.0142C8.74369 16.0142 8.49669 15.9214 8.30414 15.7527C7.57697 15.1169 6.87592 14.5194 6.25738 13.9923L6.25421 13.9896C4.44079 12.4442 2.87483 11.1096 1.78527 9.79497C0.567315 8.32534 0 6.93181 0 5.40952C0 3.9305 0.507163 2.56598 1.42794 1.56719C2.35972 0.556593 3.63824 0 5.02842 0C6.06747 0 7.019 0.328499 7.8566 0.976287C8.27928 1.30324 8.66241 1.70342 8.99998 2.17019C9.33766 1.70342 9.72068 1.30324 10.1435 0.976287C10.9811 0.328499 11.9326 0 12.9717 0C14.3617 0 15.6404 0.556593 16.5722 1.56719C17.4929 2.56598 18 3.9305 18 5.40952C18 6.93178 17.4328 8.3253 16.2148 9.79483C15.1252 11.1096 13.5594 12.4441 11.7463 13.9893C11.1267 14.5172 10.4245 15.1156 9.69569 15.753C9.50308 15.9215 9.25587 16.0143 8.99998 16.0142ZM5.02842 1.0544C3.93626 1.0544 2.93294 1.49031 2.20303 2.28185C1.46229 3.08538 1.05426 4.1961 1.05426 5.40952C1.05426 6.68983 1.5301 7.83487 2.59702 9.12222C3.62822 10.3665 5.16205 11.6736 6.938 13.1872L6.94127 13.1899C7.56213 13.719 8.26596 14.3189 8.99847 14.9594C9.73538 14.3176 10.4403 13.7168 11.0624 13.1869C12.8382 11.6734 14.3719 10.3665 15.4031 9.12222C16.4699 7.83487 16.9457 6.68983 16.9457 5.40952C16.9457 4.19607 16.5377 3.08534 15.7969 2.28185C15.0672 1.49031 14.0637 1.0544 12.9717 1.0544C12.1716 1.0544 11.437 1.30876 10.7884 1.81026C10.2104 2.25741 9.80777 2.82265 9.57166 3.21816C9.4503 3.42154 9.23662 3.54293 8.99998 3.54293C8.76335 3.54293 8.54967 3.42154 8.42827 3.21816C8.19238 2.82265 7.7897 2.25741 7.21152 1.81026C6.56296 1.30876 5.82837 1.0544 5.02842 1.0544Z" fill="black"/>
</svg>
