<svg width="20" height="21" viewBox="0 0 20 21" fill="none" xmlns="http://www.w3.org/2000/svg">
<path fill-rule="evenodd" clip-rule="evenodd" d="M11.2976 4.20842C10.8977 3.85189 10.3907 3.65623 9.86667 3.65623C9.34266 3.65623 8.83563 3.85189 8.43572 4.20842L4.19873 7.89782C3.81327 8.23412 3.57333 8.76509 3.57333 9.34409V15.0969C3.57333 16.1464 4.32224 16.9101 5.14667 16.9101H6.72V14.2163C6.72 12.3485 8.08408 10.7456 9.86667 10.7456C11.6493 10.7456 13.0133 12.3485 13.0133 14.2163V16.9101H14.5867C15.4111 16.9101 16.16 16.1464 16.16 15.096V9.34409C16.16 8.76509 15.9209 8.23412 15.5346 7.89782L11.2976 4.20842ZM12.2998 2.93196L16.5368 6.62053C17.2999 7.28568 17.7333 8.29294 17.7333 9.34409V15.0969C17.7333 16.9648 16.3693 18.5668 14.5867 18.5668H13.0133C12.5961 18.5668 12.1959 18.3922 11.9008 18.0815C11.6058 17.7708 11.44 17.3495 11.44 16.9101V14.2163C11.44 13.166 10.6911 12.4023 9.86667 12.4023C9.04224 12.4023 8.29333 13.166 8.29333 14.2163V16.9101C8.29333 17.3495 8.12757 17.7708 7.83251 18.0815C7.53746 18.3922 7.13727 18.5668 6.72 18.5668H5.14667C3.36408 18.5668 2 16.9648 2 15.096V9.34409C2 8.29294 2.43267 7.28568 3.19652 6.62053L7.43351 2.93196C8.11539 2.32995 8.97682 2 9.86667 2C10.7565 2 11.6179 2.32995 12.2998 2.93196Z" fill="#848386"/>
</svg>
