<svg width="20" height="21" viewBox="0 0 20 21" fill="none" xmlns="http://www.w3.org/2000/svg">
<path fill-rule="evenodd" clip-rule="evenodd" d="M11.2 4.10198C10.8 3.74544 10.293 3.54978 9.76901 3.54978C9.24501 3.54978 8.73798 3.74544 8.33806 4.10198L4.10108 7.79137C3.71561 8.12768 3.47568 8.65864 3.47568 9.23764V14.9904C3.47568 16.0399 4.22458 16.8036 5.04901 16.8036H6.62234V14.1099C6.62234 12.242 7.98642 10.6392 9.76901 10.6392C11.5516 10.6392 12.9157 12.242 12.9157 14.1099V16.8036H14.489C15.3134 16.8036 16.0623 16.0399 16.0623 14.9896V9.23764C16.0623 8.65864 15.8232 8.12768 15.4369 7.79137L11.2 4.10198ZM12.2022 2.82552L16.4392 6.51408C17.2022 7.17924 17.6357 8.18649 17.6357 9.23764V14.9904C17.6357 16.8583 16.2716 18.4603 14.489 18.4603H12.9157C12.4984 18.4603 12.0982 18.2858 11.8032 17.9751C11.5081 17.6644 11.3423 17.243 11.3423 16.8036V14.1099C11.3423 13.0596 10.5934 12.2959 9.76901 12.2959C8.94458 12.2959 8.19568 13.0596 8.19568 14.1099V16.8036C8.19568 17.243 8.02992 17.6644 7.73486 17.9751C7.4398 18.2858 7.03962 18.4603 6.62234 18.4603H5.04901C3.26642 18.4603 1.90234 16.8583 1.90234 14.9896V9.23764C1.90234 8.18649 2.33501 7.17924 3.09886 6.51408L7.33585 2.82552C8.01773 2.2235 8.87916 1.89355 9.76901 1.89355C10.6589 1.89355 11.5203 2.2235 12.2022 2.82552Z" fill="#8B86FE"/>
</svg>
