<svg width="24" height="24" viewBox="0 0 24 24" fill="none" xmlns="http://www.w3.org/2000/svg">
<g clip-path="url(#clip0_1504_2746)">
<path d="M11.9602 21.9667H2.99002C2.43984 21.9667 1.99336 21.5202 1.99336 20.9701V3.02986C1.99336 2.47969 2.43989 2.0332 2.99002 2.0332H11.9602C12.5113 2.0332 12.9568 1.5877 12.9568 1.03654C12.9568 0.485389 12.5113 0.0397949 11.9602 0.0397949H2.99002C1.34152 0.0397949 0 1.38136 0 3.02986V20.97C0 22.6185 1.34152 23.9601 2.99002 23.9601H11.9602C12.5113 23.9601 12.9568 23.5146 12.9568 22.9634C12.9568 22.4122 12.5113 21.9667 11.9602 21.9667Z" fill="#6E6D6F"/>
<path d="M23.7032 11.2902L17.6434 5.31013C17.2527 4.92341 16.6208 4.92843 16.2341 5.32011C15.8474 5.7118 15.8514 6.34269 16.2441 6.72941L20.5746 11.0031H8.97029C8.41913 11.0031 7.97363 11.4486 7.97363 11.9998C7.97363 12.551 8.41913 12.9965 8.97029 12.9965H20.5746L16.2441 17.2702C15.8514 17.657 15.8484 18.2878 16.2341 18.6795C16.3268 18.7736 16.4373 18.8483 16.5591 18.8993C16.6809 18.9503 16.8117 18.9765 16.9437 18.9765C17.1969 18.9765 17.45 18.8809 17.6434 18.6895L23.7032 12.7094C23.7972 12.6166 23.8718 12.5061 23.9228 12.3843C23.9738 12.2625 24.0001 12.1318 24.0002 11.9998C24.0002 11.7328 23.8936 11.4786 23.7032 11.2902Z" fill="#6E6D6F"/>
</g>
<defs>
<clipPath id="clip0_1504_2746">
<rect width="24" height="24" fill="white"/>
</clipPath>
</defs>
</svg>
