<svg preserveAspectRatio="none" width="100%" height="100%" overflow="visible" style="display: block;" viewBox="0 0 23.0624 23.3409" fill="none" xmlns="http://www.w3.org/2000/svg">
<g id="Group">
<path id="Vector" fill-rule="evenodd" clip-rule="evenodd" d="M5.8401 20.7107L6.16367 21.2825C6.16386 21.2828 6.16404 21.2831 6.16419 21.2834C6.42287 21.7435 6.25887 22.3306 5.80141 22.5889L4.69238 23.2175C4.69201 23.2177 4.69164 23.218 4.69125 23.2182C4.23116 23.4768 3.6441 23.3128 3.38565 22.8551L0.124285 17.0925C-0.136703 16.632 0.0273439 16.0444 0.48532 15.7857L1.59567 15.1571L1.596 15.1569C2.05379 14.8984 2.64104 15.0609 2.90174 15.5187L2.90221 15.5196L3.16673 15.987L6.08551 14.2971C6.95445 13.7946 7.84203 13.4656 8.79638 13.7755C9.73059 14.0784 11.2558 14.7312 12.8123 15.0125C12.8289 15.0155 12.8453 15.0196 12.8614 15.0248C13.638 15.2763 14.1106 16.0613 13.8985 16.85C13.8622 16.9855 13.8126 17.1103 13.7506 17.2233C13.9346 17.1749 14.1144 17.1004 14.2909 16.9976L18.2454 14.6944C19.6656 13.8671 20.6119 13.9535 21.1479 14.3131C21.6067 14.621 21.819 15.1468 21.8053 15.6628C21.7914 16.1839 21.5437 16.682 21.1351 16.9337L13.9594 21.3517C13.2086 21.8151 12.3861 21.9238 11.5341 21.6965L11.5337 21.6963L6.4792 20.3417L5.8401 20.7107ZM3.5376 16.6423L5.46923 20.0554L6.23774 19.6117C6.28056 19.5869 6.32783 19.5709 6.37685 19.5644C6.42587 19.558 6.47568 19.5613 6.52344 19.5741L11.7283 20.969C12.373 21.1409 12.9958 21.0616 13.564 20.7109L13.5643 20.7107L20.7402 16.2926C20.9302 16.1756 21.0297 15.9407 21.0495 15.6999C21.0801 15.329 20.9057 14.9199 20.447 14.8238C20.0255 14.7355 19.432 14.8746 18.6244 15.3451L14.67 17.6481C14.0393 18.0157 13.3783 18.1172 12.6578 18.0025L12.6566 18.0023L12.1663 17.9225L12.1658 17.9224C12.1607 17.9216 12.1556 17.9207 12.1506 17.9196L12.1501 17.9195C11.2579 17.7364 10.4305 17.4669 9.51247 17.2201C9.31181 17.1662 9.19266 16.9595 9.24659 16.7589C9.30052 16.5582 9.5072 16.4391 9.70786 16.493C10.6056 16.7343 11.4147 16.9988 12.2862 17.1788C12.7377 17.2291 13.0676 17.0412 13.1714 16.6546L13.1714 16.6544C13.2768 16.2629 13.0317 15.8828 12.6511 15.7485C11.0665 15.4578 9.5153 14.8001 8.56405 14.4917L8.56386 14.4916C7.82043 14.2502 7.13939 14.5574 6.4625 14.9489L3.5376 16.6423ZM2.24734 15.8911L2.24706 15.8906C2.19069 15.7925 2.06471 15.757 1.96631 15.8125L0.856285 16.4409L0.855956 16.4411C0.757791 16.4966 0.723438 16.6226 0.779344 16.7212L0.779438 16.7214L4.0409 22.4843L4.04109 22.4846C4.09666 22.583 4.22301 22.6174 4.32193 22.562L5.43017 21.9339L5.43064 21.9336C5.52909 21.878 5.56349 21.7516 5.508 21.6527L2.24734 15.8911ZM1.81685 16.5055C2.06857 16.468 2.30231 16.6418 2.33977 16.8935C2.37572 17.1452 2.20193 17.3804 1.95021 17.4164C1.6985 17.4538 1.46476 17.2785 1.4273 17.0268C1.39134 16.7751 1.56513 16.5414 1.81685 16.5055ZM8.21379 4.1023C8.21378 4.03621 8.23118 3.97129 8.26422 3.91406C8.29726 3.85683 8.34479 3.80931 8.40203 3.77627L10.3777 2.63557L11.9916 1.7039L13.9673 0.56319C14.0245 0.530148 14.0894 0.512752 14.1555 0.512752C14.2216 0.512752 14.2865 0.530148 14.3438 0.56319L19.909 3.77627C19.9663 3.80931 20.0138 3.85684 20.0468 3.91407C20.0799 3.9713 20.0973 4.03621 20.0973 4.1023V10.5285C20.0973 10.5945 20.0799 10.6595 20.0468 10.7167C20.0138 10.7739 19.9663 10.8214 19.909 10.8545L14.3438 14.0676C14.2865 14.1006 14.2216 14.118 14.1555 14.118C14.0894 14.118 14.0245 14.1006 13.9673 14.0676L8.40203 10.8545C8.34479 10.8215 8.29726 10.7739 8.26422 10.7167C8.23118 10.6595 8.21378 10.5945 8.21379 10.5285V4.1023ZM10.566 3.39632L9.3432 4.1023L14.1555 6.88065L15.3783 6.17467L10.566 3.39632ZM12.1798 2.4646L11.3189 2.96159L16.1313 5.73999L16.9921 5.243L12.1798 2.4646ZM18.9679 4.1023L14.1555 1.32394L12.9327 2.02992L17.745 4.80827L18.9679 4.1023ZM14.532 13.0895L19.3443 10.3111V4.75434L18.1216 5.46032V7.77392C18.1216 7.84 18.1042 7.90492 18.0711 7.96215C18.0381 8.01938 17.9906 8.0669 17.9333 8.09994L16.3194 9.03161C16.2622 9.06468 16.1973 9.08209 16.1312 9.08209C16.0651 9.0821 16.0002 9.0647 15.9429 9.03165C15.8857 8.9986 15.8382 8.95106 15.8052 8.89382C15.7721 8.83657 15.7547 8.77164 15.7548 8.70554V6.82677L14.532 7.53274V13.0895ZM8.96673 4.75434V10.3111L13.7791 13.0895V7.53274L8.96673 4.75434ZM17.3686 5.89505L16.5077 6.39204V8.05354L17.3686 7.55656V5.89505ZM19.3045 1.83279C19.2786 1.92921 19.2155 2.01141 19.129 2.06132C19.0426 2.11124 18.9398 2.12479 18.8434 2.099C18.747 2.07312 18.6648 2.01001 18.6149 1.92356C18.5649 1.8371 18.5514 1.73436 18.5772 1.63792L18.9413 0.278955C18.9672 0.182545 19.0303 0.100358 19.1167 0.050451C19.2032 0.000543618 19.3059 -0.0130021 19.4024 0.0127898C19.4988 0.0386636 19.581 0.101765 19.6309 0.188225C19.6808 0.274685 19.6944 0.377428 19.6686 0.473872L19.3045 1.83279ZM21.2281 6.24954C21.1318 6.22356 21.0496 6.16037 20.9998 6.07386C20.95 5.98735 20.9365 5.8846 20.9624 5.78818C21.0164 5.58757 21.2231 5.46846 21.4237 5.52244L22.7836 5.88823C22.9843 5.9422 23.1034 6.14893 23.0494 6.34959C22.9954 6.55025 22.7887 6.66931 22.5881 6.61533L21.2281 6.24954ZM21.1804 3.64427C21.0939 3.69414 20.9912 3.70763 20.8947 3.68179C20.7983 3.65594 20.7161 3.59287 20.6661 3.50644C20.6162 3.41996 20.6027 3.31722 20.6286 3.22079C20.6544 3.12436 20.7175 3.04213 20.8039 2.99218L22.0246 2.28747C22.111 2.23759 22.2138 2.22408 22.3102 2.24992C22.4066 2.27576 22.4889 2.33882 22.5388 2.42526C22.5887 2.51174 22.6022 2.61448 22.5763 2.7109C22.5505 2.80732 22.4875 2.88955 22.401 2.93952L21.1804 3.64427ZM9.73389 1.63792C9.75968 1.73436 9.74612 1.8371 9.69621 1.92356C9.64629 2.01001 9.56409 2.07312 9.46767 2.099C9.37123 2.12479 9.26849 2.11124 9.18204 2.06132C9.09558 2.01141 9.03248 1.92921 9.00659 1.83279L8.64245 0.473872C8.61665 0.377428 8.63019 0.274685 8.68011 0.188225C8.73003 0.101765 8.81224 0.0386636 8.90866 0.0127898C9.0051 -0.0130021 9.10783 0.000543618 9.19429 0.050451C9.28074 0.100358 9.34385 0.182545 9.36974 0.278955L9.73389 1.63792ZM6.8873 5.52244C6.98371 5.49656 7.08645 5.51001 7.17295 5.55984C7.25945 5.60967 7.32263 5.6918 7.34862 5.78818C7.37451 5.8846 7.36106 5.98735 7.31123 6.07386C7.2614 6.16037 7.17927 6.22356 7.08287 6.24954L5.72297 6.61533C5.52236 6.66931 5.31563 6.55025 5.26165 6.34959C5.20767 6.14893 5.32673 5.9422 5.52739 5.88823L6.8873 5.52244ZM7.50711 2.99218C7.59355 3.04213 7.65661 3.12436 7.68245 3.22079C7.70829 3.31722 7.69478 3.41996 7.6449 3.50644C7.54104 3.68639 7.31059 3.74813 7.13064 3.64427L5.91003 2.93952C5.82359 2.88957 5.76052 2.80734 5.73469 2.71091C5.70885 2.61448 5.72236 2.51174 5.77224 2.42526C5.82219 2.33882 5.90442 2.27576 6.00085 2.24992C6.09728 2.22408 6.20002 2.23759 6.2865 2.28747L7.50711 2.99218Z" fill="var(--fill-0, #090A0C)"/>
</g>
</svg>
