<svg width="24" height="24" viewBox="0 0 24 24" fill="none" xmlns="http://www.w3.org/2000/svg">

<g id="Why do you want to create a brand?" clip-path="url(#clip0_0_1)">

<g id="Frame">
<g id="Assessment Gender" filter="url(#filter0_dd_0_1)">
<rect x="-16" y="-16" width="343" height="56" rx="10" fill="white"/>
<rect x="-16" y="-16" width="343" height="56" rx="10" stroke="#090A0C" stroke-width="2"/>
<g id="Frame_2">
<g id="Frame_3">
<g id="Frame_4" clip-path="url(#clip1_0_1)">
<g id="Group">
<path id="Vector" fill-rule="evenodd" clip-rule="evenodd" d="M6.30909 21.0403L6.63267 21.6121C6.63286 21.6124 6.63303 21.6127 6.63319 21.613C6.89187 22.0731 6.72787 22.6602 6.27041 22.9185L5.16137 23.5471C5.16101 23.5473 5.16063 23.5475 5.16024 23.5477C4.70015 23.8064 4.11309 23.6424 3.85464 23.1847L0.593279 17.4221C0.332291 16.9616 0.496338 16.374 0.954315 16.1153L2.06467 15.4867L2.065 15.4865C2.52279 15.228 3.11003 15.3905 3.37074 15.8483L3.37121 15.8492L3.63573 16.3166L6.5545 14.6267C7.42344 14.1242 8.31102 13.7952 9.26537 14.1051C10.1996 14.408 11.7248 15.0608 13.2813 15.3421C13.2979 15.3451 13.3143 15.3492 13.3304 15.3544C14.107 15.6059 14.5796 16.3909 14.3675 17.1796C14.3312 17.3151 14.2816 17.4399 14.2196 17.5529C14.4036 17.5045 14.5834 17.43 14.7599 17.3272L18.7144 15.024C20.1346 14.1967 21.0809 14.2831 21.6169 14.6427C22.0757 14.9506 22.288 15.4764 22.2743 15.9924C22.2604 16.5135 22.0127 17.0116 21.6041 17.2633L14.4284 21.6813C13.6776 22.1446 12.8551 22.2533 12.0031 22.0261L12.0027 22.0259L6.9482 20.6713L6.30909 21.0403ZM4.0066 16.9719L5.93822 20.385L6.70674 19.9413C6.74955 19.9165 6.79682 19.9005 6.84584 19.894C6.89487 19.8876 6.94468 19.8908 6.99243 19.9037L12.1973 21.2986C12.842 21.4705 13.4648 21.3912 14.033 21.0405L14.0333 21.0403L21.2092 16.6221C21.3992 16.5052 21.4986 16.2703 21.5185 16.0295C21.5491 15.6586 21.3746 15.2494 20.916 15.1533C20.4945 15.0651 19.901 15.2042 19.0934 15.6747L15.139 17.9777C14.5083 18.3453 13.8473 18.4468 13.1268 18.3321L13.1256 18.3319L12.6353 18.2521L12.6348 18.252C12.6297 18.2512 12.6246 18.2502 12.6196 18.2492L12.6191 18.2491C11.7269 18.066 10.8995 17.7965 9.98147 17.5497C9.78081 17.4958 9.66166 17.2891 9.71559 17.0885C9.76952 16.8878 9.9762 16.7686 10.1769 16.8226C11.0746 17.0638 11.8837 17.3284 12.7552 17.5084C13.2067 17.5587 13.5366 17.3708 13.6404 16.9842L13.6404 16.984C13.7458 16.5925 13.5007 16.2124 13.1201 16.0781C11.5355 15.7874 9.98429 15.1297 9.03304 14.8213L9.03286 14.8212C8.28942 14.5798 7.60839 14.887 6.93149 15.2785L4.0066 16.9719ZM2.71634 16.2207L2.71606 16.2202C2.65968 16.1221 2.5337 16.0866 2.4353 16.1421L1.32528 16.7705L1.32495 16.7707C1.22679 16.8261 1.19243 16.9522 1.24834 17.0508L1.24843 17.051L4.50989 22.8139L4.51008 22.8142C4.56566 22.9126 4.69201 22.947 4.79093 22.8916L5.89916 22.2635L5.89963 22.2632C5.99808 22.2076 6.03248 22.0812 5.977 21.9822L2.71634 16.2207ZM2.28584 16.835C2.53756 16.7976 2.7713 16.9714 2.80876 17.2231C2.84471 17.4748 2.67093 17.71 2.41921 17.746C2.16749 17.7834 1.93375 17.6081 1.89629 17.3564C1.86034 17.1047 2.03413 16.871 2.28584 16.835ZM8.68279 4.43189C8.68278 4.3658 8.70017 4.30088 8.73321 4.24365C8.76626 4.18642 8.81378 4.1389 8.87102 4.10586L10.8467 2.96516L12.4606 2.03349L14.4363 0.89278C14.4935 0.859738 14.5584 0.842342 14.6245 0.842342C14.6906 0.842342 14.7555 0.859738 14.8128 0.89278L20.378 4.10586C20.4353 4.1389 20.4828 4.18643 20.5158 4.24366C20.5489 4.30089 20.5663 4.3658 20.5663 4.43189V10.8581C20.5663 10.9241 20.5489 10.9891 20.5158 11.0463C20.4828 11.1035 20.4353 11.151 20.378 11.1841L14.8128 14.3972C14.7555 14.4302 14.6906 14.4476 14.6245 14.4476C14.5584 14.4476 14.4935 14.4302 14.4363 14.3972L8.87102 11.1841C8.81378 11.151 8.76626 11.1035 8.73321 11.0463C8.70017 10.9891 8.68278 10.9241 8.68279 10.8581V4.43189ZM11.035 3.72591L9.8122 4.43189L14.6245 7.21024L15.8473 6.50426L11.035 3.72591ZM12.6488 2.79419L11.7879 3.29118L16.6002 6.06958L17.4611 5.57259L12.6488 2.79419ZM19.4369 4.43189L14.6245 1.65353L13.4017 2.35951L18.214 5.13786L19.4369 4.43189ZM15.001 13.419L19.8133 10.6407V5.08393L18.5906 5.78991V8.10351C18.5905 8.16959 18.5732 8.23451 18.5401 8.29174C18.5071 8.34897 18.4595 8.39649 18.4023 8.42953L16.7884 9.36121C16.7312 9.39427 16.6663 9.41168 16.6002 9.41168C16.5341 9.41169 16.4692 9.39429 16.4119 9.36124C16.3547 9.32819 16.3072 9.28065 16.2741 9.22341C16.2411 9.16616 16.2237 9.10123 16.2238 9.03513V7.15636L15.001 7.86233V13.419ZM9.43573 5.08393V10.6407L14.2481 13.419V7.86233L9.43573 5.08393ZM17.8376 6.22464L16.9767 6.72163V8.38313L17.8376 7.88615V6.22464ZM19.7735 2.16238C19.7476 2.2588 19.6845 2.341 19.598 2.39091C19.5116 2.44083 19.4088 2.45438 19.3124 2.42859C19.216 2.40271 19.1338 2.3396 19.0839 2.25315C19.0339 2.16669 19.0204 2.06395 19.0462 1.96751L19.4103 0.608544C19.4362 0.512135 19.4993 0.429948 19.5857 0.380041C19.6722 0.330133 19.7749 0.316588 19.8714 0.34238C19.9678 0.368253 20.05 0.431355 20.0999 0.517815C20.1498 0.604275 20.1634 0.707018 20.1376 0.803462L19.7735 2.16238ZM21.6971 6.57913C21.6007 6.55315 21.5186 6.48996 21.4688 6.40345C21.419 6.31694 21.4055 6.21419 21.4314 6.11777C21.4854 5.91716 21.6921 5.79805 21.8927 5.85203L23.2526 6.21782C23.4533 6.27179 23.5724 6.47852 23.5184 6.67918C23.4644 6.87984 23.2577 6.9989 23.057 6.94492L21.6971 6.57913ZM21.6494 3.97386C21.5629 4.02373 21.4601 4.03722 21.3637 4.01138C21.2673 3.98553 21.1851 3.92246 21.1351 3.83603C21.0852 3.74955 21.0717 3.64681 21.0976 3.55038C21.1234 3.45395 21.1865 3.37172 21.2729 3.32177L22.4936 2.61706C22.58 2.56718 22.6828 2.55367 22.7792 2.57951C22.8756 2.60535 22.9579 2.66841 23.0078 2.75485C23.0577 2.84133 23.0712 2.94407 23.0453 3.04049C23.0195 3.13691 22.9564 3.21914 22.87 3.26911L21.6494 3.97386ZM10.2029 1.96751C10.2287 2.06395 10.2151 2.16669 10.1652 2.25315C10.1153 2.3396 10.0331 2.40271 9.93667 2.42859C9.84022 2.45438 9.73749 2.44083 9.65103 2.39091C9.56457 2.341 9.50147 2.2588 9.47558 2.16238L9.11144 0.803462C9.08564 0.707018 9.09919 0.604275 9.14911 0.517815C9.19903 0.431355 9.28123 0.368253 9.37766 0.34238C9.47409 0.316588 9.57682 0.330133 9.66328 0.380041C9.74974 0.429948 9.81284 0.512135 9.83874 0.608544L10.2029 1.96751ZM7.35629 5.85203C7.4527 5.82615 7.55544 5.8396 7.64194 5.88943C7.72844 5.93926 7.79163 6.02139 7.81761 6.11777C7.8435 6.21419 7.83006 6.31694 7.78023 6.40345C7.7304 6.48996 7.64826 6.55315 7.55187 6.57913L6.19196 6.94492C5.99135 6.9989 5.78462 6.87984 5.73064 6.67918C5.67667 6.47852 5.79573 6.27179 5.99639 6.21782L7.35629 5.85203ZM7.9761 3.32177C8.06254 3.37172 8.12561 3.45395 8.15144 3.55038C8.17728 3.64681 8.16377 3.74955 8.11389 3.83603C8.01003 4.01598 7.77959 4.07772 7.59963 3.97386L6.37902 3.26911C6.29258 3.21916 6.22952 3.13693 6.20368 3.0405C6.17784 2.94407 6.19135 2.84133 6.24123 2.75485C6.29118 2.66841 6.37341 2.60535 6.46984 2.57951C6.56627 2.55367 6.66901 2.56718 6.75549 2.61706L7.9761 3.32177Z" fill="#090A0C"/>
</g>
</g>
</g>
</g>
</g>
</g>
</g>
<defs>
<filter id="filter0_dd_0_1" x="-33" y="-25" width="377" height="90" filterUnits="userSpaceOnUse" color-interpolation-filters="sRGB">
<feFlood flood-opacity="0" result="BackgroundImageFix"/>
<feColorMatrix in="SourceAlpha" type="matrix" values="0 0 0 0 0 0 0 0 0 0 0 0 0 0 0 0 0 0 127 0" result="hardAlpha"/>
<feOffset dy="8"/>
<feGaussianBlur stdDeviation="8"/>
<feColorMatrix type="matrix" values="0 0 0 0 0.0588235 0 0 0 0 0.0901961 0 0 0 0 0.164706 0 0 0 0.02 0"/>
<feBlend mode="normal" in2="BackgroundImageFix" result="effect1_dropShadow_0_1"/>
<feColorMatrix in="SourceAlpha" type="matrix" values="0 0 0 0 0 0 0 0 0 0 0 0 0 0 0 0 0 0 127 0" result="hardAlpha"/>
<feOffset dy="4"/>
<feGaussianBlur stdDeviation="4"/>
<feColorMatrix type="matrix" values="0 0 0 0 0.0588235 0 0 0 0 0.0901961 0 0 0 0 0.164706 0 0 0 0.03 0"/>
<feBlend mode="normal" in2="effect1_dropShadow_0_1" result="effect2_dropShadow_0_1"/>
<feBlend mode="normal" in="SourceGraphic" in2="effect2_dropShadow_0_1" result="shape"/>
</filter>
<clipPath id="clip0_0_1">
<rect width="375" height="812" fill="white" transform="translate(-32 -288)"/>
</clipPath>
<clipPath id="clip1_0_1">
<rect width="24" height="24" fill="white"/>
</clipPath>
</defs>
</svg>
