<svg preserveAspectRatio="none" width="100%" height="100%" overflow="visible" style="display: block;" viewBox="0 0 22.5009 22.5" fill="none" xmlns="http://www.w3.org/2000/svg">
<g id="Group">
<path id="Vector" d="M0.375214 3C1.07234 3 1.65434 2.52 1.82196 1.875H8.52096C8.39084 2.09813 8.15159 2.25 7.87521 2.25H7.50021C7.40076 2.25 7.30537 2.28951 7.23505 2.35984C7.16472 2.43016 7.12521 2.52554 7.12521 2.625V3.82425L4.04384 4.509C3.93659 4.53263 3.84509 4.60275 3.79334 4.69987C3.76806 4.74796 3.75349 4.80094 3.75064 4.85519C3.7478 4.90944 3.75673 4.96366 3.77684 5.01413L3.94484 5.43375L1.00859 6.393C0.936673 6.41638 0.873528 6.461 0.827472 6.52098C0.781417 6.58096 0.754612 6.65349 0.750588 6.729L0.00058849 20.604C-0.00226932 20.655 0.00530262 20.706 0.0228407 20.7539C0.0403788 20.8018 0.067514 20.8456 0.102585 20.8827C0.137656 20.9198 0.179924 20.9493 0.226802 20.9695C0.27368 20.9896 0.324181 21 0.375214 21H1.87521V22.125C1.87521 22.2245 1.91472 22.3198 1.98505 22.3902C2.05537 22.4605 2.15076 22.5 2.25021 22.5H12.7502C12.8497 22.5 12.9451 22.4605 13.0154 22.3902C13.0857 22.3198 13.1252 22.2245 13.1252 22.125V21H14.6252C14.6761 20.9999 14.7265 20.9895 14.7733 20.9693C14.8201 20.9492 14.8623 20.9197 14.8973 20.8827C14.9323 20.8458 14.9595 20.8021 14.9771 20.7543C14.9948 20.7065 15.0025 20.6556 14.9998 20.6047L14.3053 7.75837L14.9185 6.14512L17.6395 7.02713L18.3542 20.25H16.1406L16.4998 11.265L15.7506 11.235L15.3756 20.61C15.3737 20.6604 15.3819 20.7107 15.3999 20.7579C15.4178 20.8051 15.4451 20.8482 15.4801 20.8846C15.515 20.9209 15.557 20.9499 15.6034 20.9698C15.6498 20.9896 15.6997 20.9999 15.7502 21H18.7502C18.8011 20.9999 18.8515 20.9895 18.8983 20.9693C18.9451 20.9492 18.9873 20.9197 19.0223 20.8827C19.0573 20.8458 19.0845 20.8021 19.1021 20.7543C19.1198 20.7065 19.1275 20.6556 19.1248 20.6047L18.4165 7.5H20.2502V15H19.1252V15.75H20.6252C20.7247 15.75 20.8201 15.7105 20.8904 15.6402C20.9607 15.5698 21.0002 15.4745 21.0002 15.375V7.5H22.1252C22.1892 7.50024 22.2522 7.48406 22.3082 7.453C22.3642 7.42195 22.4112 7.37705 22.4449 7.32262C22.4786 7.26818 22.4977 7.20602 22.5005 7.14208C22.5033 7.07813 22.4896 7.01454 22.4608 6.95737L21.3358 4.70738C21.3108 4.65754 21.275 4.6139 21.231 4.57959C21.1871 4.54528 21.136 4.52117 21.0816 4.509L18.0002 3.82425V3C18.6973 3 19.2793 2.52 19.447 1.875H20.6785C20.8461 2.52 21.4281 3 22.1252 3C22.2247 3 22.3201 2.96049 22.3904 2.89016C22.4607 2.81984 22.5002 2.72446 22.5002 2.625V0.375C22.5002 0.275544 22.4607 0.180161 22.3904 0.109835C22.3201 0.0395088 22.2247 0 22.1252 0C21.4281 0 20.8461 0.48 20.6785 1.125H19.447C19.2793 0.48 18.6973 0 18.0002 0H16.8752V0.75H18.0002C18.2766 0.75 18.5158 0.901875 18.646 1.125H13.447C13.2793 0.48 12.6973 0 12.0002 0H10.8752V0.75H12.0002C12.2766 0.75 12.5158 0.901875 12.646 1.125H9.32196C9.15434 0.48 8.57234 0 7.87521 0H6.75021V0.75H7.87521C8.15159 0.75 8.39084 0.901875 8.52096 1.125H1.82196C1.65434 0.48 1.07234 0 0.375214 0C0.275757 0 0.180375 0.0395088 0.110048 0.109835C0.0397223 0.180161 0.000213517 0.275544 0.000213517 0.375V2.625C0.000213517 2.72446 0.0397223 2.81984 0.110048 2.89016C0.180375 2.96049 0.275757 3 0.375214 3ZM21.7502 0.850875V2.1495C21.6364 2.08357 21.5419 1.98888 21.4762 1.87492C21.4105 1.76095 21.3759 1.63173 21.3759 1.50019C21.3759 1.36865 21.4105 1.23942 21.4762 1.12546C21.5419 1.0115 21.6364 0.916805 21.7502 0.850875ZM9.32196 1.875H12.646C12.5158 2.09813 12.2766 2.25 12.0002 2.25H11.6252C11.5258 2.25 11.4304 2.28951 11.36 2.35984C11.2897 2.43016 11.2502 2.52554 11.2502 2.625V4.125C11.2502 4.30088 11.3721 4.45312 11.5438 4.491L12.5593 4.71675L12.0557 5.766L11.053 5.44088L11.2236 5.01413C11.2437 4.96366 11.2527 4.90941 11.2498 4.85514C11.2469 4.80088 11.2322 4.74789 11.2069 4.69984C11.1815 4.6518 11.1459 4.60985 11.1027 4.5769C11.0595 4.54394 11.0096 4.52078 10.9566 4.509L7.87521 3.82425V3C8.57234 3 9.15434 2.52 9.32196 1.875ZM7.50021 4.509L10.3633 5.14537L9.21471 8.01638L8.15571 7.16925L9.56834 6.32175C9.61712 6.29239 9.65858 6.25231 9.68959 6.20456C9.72059 6.15681 9.74033 6.10263 9.7473 6.04612C9.75427 5.98961 9.7483 5.93226 9.72983 5.8784C9.71137 5.82454 9.68089 5.77559 9.64071 5.73525L8.89071 4.98525L8.36046 5.5155L8.77109 5.92575L7.50021 6.68775L6.22971 5.92538L6.64034 5.51513L6.11009 4.98488L5.36009 5.73487C5.31963 5.77508 5.28891 5.824 5.27028 5.8779C5.25164 5.9318 5.24559 5.98926 5.25257 6.04586C5.25956 6.10246 5.2794 6.15672 5.31058 6.20447C5.34176 6.25223 5.38345 6.29221 5.43246 6.32138L6.84509 7.16888L5.78609 8.016L4.63746 5.145L7.50021 4.509ZM2.62521 21H3.37521C3.42569 20.9999 3.47562 20.9896 3.52203 20.9698C3.56844 20.9499 3.61038 20.9209 3.64534 20.8846C3.68031 20.8482 3.70758 20.8051 3.72553 20.7579C3.74349 20.7107 3.75175 20.6604 3.74984 20.61L3.37484 11.235L2.62559 11.265L2.98484 20.25H0.771214L1.48596 7.02675L4.22421 6.132L5.27721 8.76413C5.29893 8.81851 5.33311 8.86704 5.37701 8.90579C5.42091 8.94455 5.4733 8.97245 5.52996 8.98725C5.58658 9.00241 5.64597 9.004 5.70331 8.99188C5.76066 8.97976 5.81433 8.95428 5.85996 8.9175L7.12559 7.905V21.75H2.62521V21ZM12.0156 20.25L12.3748 11.265L11.6256 11.235L11.2506 20.61C11.2487 20.6604 11.2569 20.7107 11.2749 20.7579C11.2928 20.8051 11.3201 20.8482 11.3551 20.8846C11.39 20.9209 11.432 20.9499 11.4784 20.9698C11.5248 20.9896 11.5747 20.9999 11.6252 21H12.3752V21.75H7.87521V7.90537L9.14084 8.91788C9.18666 8.95421 9.24032 8.97936 9.29755 8.99135C9.35479 9.00334 9.41403 9.00184 9.47058 8.98695C9.52713 8.97207 9.57944 8.94422 9.62335 8.90561C9.66727 8.86699 9.70159 8.81868 9.72359 8.7645L10.774 6.13913L13.5148 7.02787L14.2292 20.25H12.0156ZM14.017 6.4065C14.008 6.40275 14.0005 6.39637 13.9907 6.39337L12.7753 5.99925L13.3108 4.88362L14.4955 5.14688L14.017 6.4065ZM18.0002 2.25H17.6252C17.5258 2.25 17.4304 2.28951 17.36 2.35984C17.2897 2.43016 17.2502 2.52554 17.2502 2.625V3.82425L15.8563 4.134L16.0191 4.866L17.6252 4.509L20.7445 5.20238L21.5185 6.75H18.376L18.3748 6.72975C18.3707 6.65411 18.3438 6.58148 18.2976 6.52144C18.2514 6.4614 18.1881 6.41675 18.1161 6.39337L15.1855 5.4435L15.3508 5.0085C15.3701 4.95822 15.3783 4.90436 15.3749 4.85062C15.3714 4.79688 15.3564 4.74452 15.3308 4.69712C15.3052 4.64973 15.2697 4.60841 15.2267 4.57601C15.1837 4.5436 15.1342 4.52087 15.0816 4.50937L12.0002 3.82425V3C12.6973 3 13.2793 2.52 13.447 1.875H18.646C18.5158 2.09813 18.2766 2.25 18.0002 2.25ZM0.750214 0.850875C0.864234 0.916601 0.95893 1.0112 1.02477 1.12515C1.09062 1.23911 1.12528 1.36839 1.12528 1.5C1.12528 1.63161 1.09062 1.76089 1.02477 1.87485C0.95893 1.9888 0.864234 2.0834 0.750214 2.14912V0.850875Z" fill="var(--fill-0, #090A0C)"/>
<path id="Vector_2" d="M13.1252 18.75H13.8752V19.5H13.1252V18.75ZM1.12521 18.75H1.87521V19.5H1.12521V18.75ZM5.62521 10.5H6.37521V11.25H5.62521V10.5ZM5.62521 14.25H6.37521V15H5.62521V14.25ZM5.62521 18H6.37521V18.75H5.62521V18Z" fill="var(--fill-0, #090A0C)"/>
</g>
</svg>
