<svg width="24" height="24" viewBox="0 0 24 24" fill="none" xmlns="http://www.w3.org/2000/svg">
<path d="M9.86023 11.5609C11.4484 11.5609 12.8236 10.9912 13.9475 9.86731C15.071 8.74362 15.6408 7.36869 15.6408 5.78029C15.6408 4.19235 15.0712 2.81728 13.9473 1.69317C12.8234 0.569624 11.4483 0 9.86023 0C8.27178 0 6.8968 0.569624 5.77311 1.69336C4.64943 2.81709 4.07957 4.19221 4.07957 5.78029C4.07957 7.36869 4.64938 8.74381 5.77316 9.86754C6.89722 10.9911 8.27234 11.5609 9.86018 11.5609H9.86023ZM6.76775 2.68781C7.62997 1.82554 8.64148 1.40643 9.86023 1.40643C11.0788 1.40643 12.0904 1.82554 12.9528 2.68781C13.8151 3.55021 14.2344 4.56187 14.2344 5.78024C14.2344 6.99899 13.8151 8.0105 12.9528 8.8729C12.0904 9.73536 11.0788 10.1545 9.86023 10.1545C8.64181 10.1545 7.63039 9.73517 6.76775 8.8729C5.9053 8.01069 5.486 6.99903 5.486 5.78029C5.486 4.56187 5.9053 3.55021 6.76775 2.68781ZM19.9748 18.4548C19.9423 17.9872 19.8768 17.477 19.7803 16.9383C19.6829 16.3956 19.5575 15.8825 19.4073 15.4136C19.252 14.9289 19.0413 14.4503 18.7803 13.9916C18.5099 13.5155 18.1921 13.101 17.8353 12.7599C17.4624 12.403 17.0057 12.1161 16.4776 11.9067C15.9514 11.6986 15.3682 11.5931 14.7444 11.5931C14.4993 11.5931 14.2624 11.6936 13.8048 11.9916C13.4796 12.2034 13.1533 12.4137 12.8261 12.6225C12.5118 12.8229 12.0859 13.0106 11.5598 13.1805C11.0465 13.3466 10.5254 13.4308 10.0109 13.4308C9.49676 13.4308 8.97561 13.3466 8.462 13.1805C7.93653 13.0107 7.51044 12.8231 7.19656 12.6227C6.83235 12.39 6.50282 12.1776 6.21697 11.9914C5.75975 11.6935 5.5228 11.5929 5.27783 11.5929C4.65379 11.5929 4.0708 11.6986 3.54473 11.907C3.01701 12.1159 2.56017 12.4028 2.18681 12.7601C1.83014 13.1013 1.51228 13.5157 1.242 13.9916C0.981467 14.4503 0.77053 14.9287 0.615233 15.4138C0.465233 15.8827 0.339843 16.3956 0.242437 16.9383C0.145734 17.4763 0.0803905 17.9866 0.047953 18.4554C0.0160781 18.9136 0 19.3906 0 19.8726C0 21.1254 0.398249 22.1396 1.18359 22.8876C1.95923 23.6258 2.98537 24 4.23355 24H15.7897C17.0375 24 18.0637 23.6257 18.8395 22.8876C19.625 22.1401 20.0233 21.1256 20.0233 19.8724C20.0231 19.3888 20.0068 18.9118 19.9748 18.4548ZM17.8698 21.8686C17.3573 22.3564 16.6768 22.5935 15.7895 22.5935H4.2336C3.34612 22.5935 2.66568 22.3564 2.15334 21.8688C1.65075 21.3903 1.40648 20.7372 1.40648 19.8726C1.40648 19.4229 1.42129 18.9789 1.45101 18.5526C1.47989 18.1344 1.53904 17.6749 1.62679 17.1868C1.71337 16.7047 1.82357 16.2522 1.95468 15.8426C2.0805 15.4498 2.25206 15.061 2.46482 14.6863C2.66789 14.3292 2.90151 14.0229 3.15932 13.7761C3.40049 13.5452 3.70448 13.3563 4.0626 13.2146C4.39382 13.0834 4.7661 13.0116 5.17021 13.0008C5.21943 13.0271 5.30718 13.077 5.44925 13.1696C5.73838 13.3581 6.07161 13.5731 6.44005 13.8083C6.85536 14.0731 7.39034 14.3122 8.02958 14.5186C8.68306 14.7299 9.34958 14.8372 10.0111 14.8372C10.6727 14.8372 11.3394 14.7299 11.9925 14.5188C12.6323 14.312 13.1671 14.0731 13.583 13.8079C13.96 13.567 14.2839 13.3583 14.573 13.1696C14.7151 13.0772 14.8028 13.027 14.8521 13.0008C15.2564 13.0116 15.6286 13.0834 15.96 13.2145C16.318 13.3563 16.622 13.5454 16.8631 13.7761C17.1209 14.0227 17.3545 14.3291 17.5576 14.6865C17.7706 15.061 17.9424 15.4501 18.0679 15.8425C18.1992 16.2526 18.3096 16.7049 18.3961 17.1866C18.4836 17.6757 18.5429 18.1353 18.5718 18.5528V18.5531C18.6017 18.9777 18.6167 19.4216 18.6169 19.8726C18.6167 20.7374 18.3724 21.3904 17.8698 21.8686H17.8698Z" fill="#6E6D6F"/>
</svg>
