<svg width="25" height="24" viewBox="0 0 25 24" fill="none" xmlns="http://www.w3.org/2000/svg">
<path d="M12.8832 10.87C12.7832 10.86 12.6632 10.86 12.5532 10.87C10.1732 10.79 8.28323 8.84 8.28323 6.44C8.28323 3.99 10.2632 2 12.7232 2C15.1732 2 17.1632 3.99 17.1632 6.44C17.1532 8.84 15.2632 10.79 12.8832 10.87Z" stroke="#848386" stroke-width="1.5" stroke-linecap="round" stroke-linejoin="round"/>
<path d="M7.88324 14.56C5.46324 16.18 5.46324 18.82 7.88324 20.43C10.6332 22.27 15.1432 22.27 17.8932 20.43C20.3132 18.81 20.3132 16.17 17.8932 14.56C15.1532 12.73 10.6432 12.73 7.88324 14.56Z" stroke="#848386" stroke-width="1.5" stroke-linecap="round" stroke-linejoin="round"/>
</svg>
