<svg width="25px" height="24px" viewBox="0 0 25 24" fill="none" xmlns="http://www.w3.org/2000/svg" transform="rotate(0) scale(1, 1)">
<path d="M12.8832 10.87C12.7832 10.86 12.6632 10.86 12.5532 10.87C10.1732 10.79 8.2832 8.84 8.2832 6.44C8.2832 3.99 10.2632 2 12.7232 2C15.1732 2 17.1632 3.99 17.1632 6.44C17.1532 8.84 15.2632 10.79 12.8832 10.87Z" stroke="#000000" stroke-width="1.5" stroke-linecap="round" stroke-linejoin="round"/>
<path d="M7.88336 14.56C5.46336 16.18 5.46336 18.82 7.88336 20.43C10.6334 22.27 15.1434 22.27 17.8934 20.43C20.3134 18.81 20.3134 16.17 17.8934 14.56C15.1534 12.73 10.6434 12.73 7.88336 14.56Z" stroke="#000000" stroke-width="1.5" stroke-linecap="round" stroke-linejoin="round"/>
</svg>