<svg width="24" height="24" viewBox="0 0 24 24" fill="none" xmlns="http://www.w3.org/2000/svg">
<g clip-path="url(#clip0_1504_2716)">
<path d="M13.12 24H10.88C10.5138 23.9997 10.1603 23.8652 9.88654 23.622C9.61274 23.3787 9.43752 23.0436 9.394 22.68L9.155 20.804C8.68276 20.6507 8.22334 20.4605 7.781 20.235L6.287 21.396C5.99853 21.6228 5.63662 21.7353 5.27044 21.712C4.90426 21.6888 4.55948 21.5314 4.302 21.27L2.727 19.695C2.46701 19.4378 2.31087 19.0938 2.28836 18.7288C2.26586 18.3637 2.37858 18.0032 2.605 17.716L3.766 16.221C3.53969 15.779 3.34941 15.3196 3.197 14.847L1.317 14.608C0.953825 14.5631 0.619545 14.3872 0.377015 14.1131C0.134484 13.8391 0.00040948 13.4859 0 13.12L0 10.88C0 10.123 0.567 9.484 1.32 9.394L3.196 9.155C3.34928 8.68276 3.53953 8.22334 3.765 7.781L2.605 6.287C2.37767 5.99852 2.2649 5.63623 2.28834 5.26969C2.31178 4.90315 2.46977 4.55818 2.732 4.301L4.307 2.726C4.56434 2.46621 4.90827 2.3102 5.27324 2.2877C5.63821 2.2652 5.9987 2.37779 6.286 2.604L7.78 3.766C8.22261 3.54036 8.68237 3.3501 9.155 3.197L9.394 1.317C9.484 0.567 10.123 0 10.88 0H13.12C13.877 0 14.516 0.567 14.606 1.32L14.845 3.196C15.323 3.351 15.783 3.542 16.22 3.765L17.714 2.604C18.0024 2.37695 18.3645 2.26435 18.7308 2.28779C19.0971 2.31122 19.4419 2.46905 19.699 2.731L21.274 4.306C21.811 4.827 21.865 5.68 21.396 6.285L20.235 7.78C20.459 8.217 20.65 8.677 20.804 9.154L22.684 9.393C23.0469 9.43786 23.3809 9.61373 23.6233 9.88757C23.8656 10.1614 23.9996 10.5143 24 10.88V13.12C24 13.877 23.433 14.516 22.68 14.606L20.804 14.845C20.6507 15.3172 20.4605 15.7767 20.235 16.219L21.396 17.713C21.623 18.0014 21.7357 18.3635 21.7122 18.7298C21.6888 19.0961 21.531 19.4409 21.269 19.698L19.694 21.273C19.4369 21.5332 19.0929 21.6895 18.7278 21.712C18.3627 21.7345 18.0021 21.6216 17.715 21.395L16.22 20.234C15.778 20.4603 15.3186 20.6506 14.846 20.803L14.607 22.683C14.5624 23.0461 14.3866 23.3804 14.1127 23.6229C13.8389 23.8655 13.4858 23.9996 13.12 24ZM7.73 19.14C7.813 19.14 7.898 19.161 7.974 19.203C8.53522 19.5154 9.13045 19.7624 9.748 19.939C9.84188 19.9659 9.92581 20.0198 9.98943 20.0939C10.0531 20.168 10.0936 20.2591 10.106 20.356L10.386 22.556C10.416 22.807 10.633 23 10.88 23H13.12C13.2412 22.9984 13.3578 22.9531 13.4484 22.8724C13.5389 22.7918 13.5974 22.6812 13.613 22.561L13.894 20.357C13.9064 20.2601 13.9469 20.169 14.0106 20.0949C14.0742 20.0208 14.1581 19.9669 14.252 19.94C14.8695 19.7634 15.4648 19.5164 16.026 19.204C16.1117 19.1562 16.2095 19.1346 16.3073 19.1421C16.4052 19.1496 16.4986 19.1857 16.576 19.246L18.326 20.606C18.4203 20.6819 18.5392 20.7203 18.66 20.7141C18.7808 20.7078 18.8951 20.6572 18.981 20.572L20.566 18.987C20.6527 18.9011 20.7046 18.7863 20.7118 18.6645C20.719 18.5427 20.681 18.4225 20.605 18.327L19.245 16.577C19.1848 16.4995 19.1488 16.4061 19.1413 16.3083C19.1338 16.2105 19.1553 16.1127 19.203 16.027C19.5154 15.4658 19.7624 14.8705 19.939 14.253C19.9659 14.1591 20.0198 14.0752 20.0939 14.0116C20.168 13.9479 20.2591 13.9074 20.356 13.895L22.556 13.615C22.6772 13.5998 22.7889 13.5414 22.8705 13.4505C22.9521 13.3595 22.9981 13.2422 23 13.12V10.88C22.9984 10.7588 22.9531 10.6422 22.8724 10.5516C22.7918 10.4611 22.6812 10.4026 22.561 10.387L20.357 10.106C20.2601 10.0936 20.169 10.0531 20.0949 9.98943C20.0208 9.92581 19.9669 9.84188 19.94 9.748C19.7634 9.13045 19.5164 8.53522 19.204 7.974C19.1559 7.88842 19.1342 7.79052 19.1417 7.69264C19.1492 7.59476 19.1855 7.50128 19.246 7.424L20.606 5.674C20.6821 5.58011 20.7209 5.4614 20.7148 5.34068C20.7087 5.21996 20.6582 5.10575 20.573 5.02L18.988 3.435C18.9025 3.34769 18.7875 3.29533 18.6655 3.28812C18.5435 3.28091 18.4232 3.31937 18.328 3.396L16.578 4.756C16.5005 4.81638 16.4068 4.85257 16.3088 4.86004C16.2108 4.86751 16.1128 4.84593 16.027 4.798C15.4659 4.48532 14.8706 4.23836 14.253 4.062C14.1591 4.03505 14.0752 3.98121 14.0116 3.9071C13.9479 3.83299 13.9074 3.74188 13.895 3.645L13.615 1.445C13.6001 1.32359 13.5417 1.21168 13.4508 1.12989C13.3598 1.04811 13.2423 1.00198 13.12 1H10.88C10.7588 1.00164 10.6422 1.04692 10.5516 1.12755C10.4611 1.20819 10.4026 1.31876 10.387 1.439L10.106 3.643C10.0935 3.73997 10.053 3.83118 9.98939 3.90543C9.92579 3.97969 9.84189 4.03376 9.748 4.061C9.13039 4.23701 8.53512 4.48364 7.974 4.796C7.88829 4.84407 7.79032 4.86581 7.69232 4.85852C7.59433 4.85123 7.50065 4.81522 7.423 4.755L5.673 3.395C5.57911 3.31887 5.4604 3.28012 5.33968 3.28621C5.21896 3.2923 5.10475 3.3428 5.019 3.428L3.434 5.014C3.34729 5.09986 3.29535 5.21472 3.28816 5.33653C3.28096 5.45835 3.31901 5.57853 3.395 5.674L4.755 7.424C4.81517 7.50145 4.85124 7.59489 4.85871 7.69268C4.86617 7.79048 4.84471 7.88831 4.797 7.974C4.48418 8.53502 4.23721 9.1303 4.061 9.748C4.03405 9.84188 3.9802 9.92581 3.9061 9.98943C3.83199 10.0531 3.74088 10.0936 3.644 10.106L1.444 10.386C1.32277 10.4007 1.21099 10.4589 1.12936 10.5497C1.04772 10.6406 1.00177 10.7579 1 10.88V13.12C1 13.367 1.193 13.584 1.439 13.613L3.643 13.894C3.73988 13.9064 3.83099 13.9469 3.9051 14.0106C3.9792 14.0742 4.03306 14.1581 4.06 14.252C4.24 14.878 4.488 15.475 4.796 16.026C4.8441 16.1116 4.86578 16.2095 4.8583 16.3074C4.85083 16.4052 4.81454 16.4987 4.754 16.576L3.394 18.326C3.31787 18.4199 3.27912 18.5386 3.28521 18.6593C3.2913 18.78 3.3418 18.8943 3.427 18.98L5.012 20.565C5.09775 20.6519 5.21264 20.704 5.33451 20.7112C5.45639 20.7184 5.57661 20.6802 5.672 20.604L7.422 19.244C7.51075 19.177 7.6188 19.1405 7.73 19.14Z" fill="#6E6D6F"/>
<path d="M12 17C9.243 17 7 14.757 7 12C7 9.243 9.243 7 12 7C14.757 7 17 9.243 17 12C17 14.757 14.757 17 12 17ZM12 8C9.794 8 8 9.794 8 12C8 14.206 9.794 16 12 16C14.206 16 16 14.206 16 12C16 9.794 14.206 8 12 8Z" fill="#6E6D6F"/>
</g>
<defs>
<clipPath id="clip0_1504_2716">
<rect width="24" height="24" fill="white"/>
</clipPath>
</defs>
</svg>
