<svg width="24" height="24" viewBox="0 0 24 24" fill="none" xmlns="http://www.w3.org/2000/svg">
<path d="M19.379 16.9131C17.8671 15.635 17.0001 13.767 17.0001 11.788V9C17.0001 5.48109 14.386 2.56805 11.0001 2.08008V0.999938C11.0001 0.446953 10.552 0 9.99994 0C9.44808 0 9 0.446953 9 0.999938V2.08008C5.61291 2.56805 3 5.48109 3 9V11.788C3 13.767 2.133 15.635 0.611953 16.9209C0.419944 17.0851 0.265803 17.2889 0.160157 17.5183C0.05451 17.7477 -0.000130889 17.9973 2.35442e-07 18.2499C2.35442e-07 19.2151 0.784969 20.0001 1.74994 20.0001H18.2499C19.2151 20.0001 20.0001 19.2151 20.0001 18.2499C20.0001 17.738 19.777 17.2541 19.379 16.9131ZM9.99994 24C11.811 24 13.326 22.7089 13.674 21H6.32592C6.67402 22.7089 8.18902 24 9.99994 24Z" fill="#6E6D6F"/>
</svg>
